<?xml version="1.0" encoding="UTF-8" standalone="no"?>
<!DOCTYPE svg PUBLIC "-//W3C//DTD SVG 1.1//EN" "http://www.w3.org/Graphics/SVG/1.1/DTD/svg11.dtd">
<svg width="393px" height="60px" version="1.1" xmlns="http://www.w3.org/2000/svg" xmlns:xlink="http://www.w3.org/1999/xlink" xml:space="preserve" xmlns:serif="http://www.serif.com/" style="fill-rule:evenodd;clip-rule:evenodd;stroke-linejoin:round;stroke-miterlimit:1.41421;"><g id="ArtBoard1" transform="matrix(0.981276,0,0,1,0,0)"><rect x="0" y="0" width="400" height="60" style="fill:none;"/><clipPath id="_clip1"><rect x="0" y="0" width="400" height="60"/></clipPath><g clip-path="url(#_clip1)"><g transform="matrix(1.01987,0,0,3.89119,-132.839,-57.7846)"><g transform="matrix(0.999226,0,0,0.256991,254.913,30.2696)"><path d="M0,-26.409L0,-20.272L8.116,-20.272L8.116,0L15.203,0L15.203,-20.272L23.241,-20.272L23.241,-26.409L0,-26.409ZM-15.442,-26.409L-25.144,0L-17.898,0L-16.153,-5.463L-7.325,-5.463L-5.624,0L1.938,0L-7.405,-26.409L-15.442,-26.409ZM-11.682,-20.272L-8.75,-10.572L-14.729,-10.572L-11.682,-20.272ZM-36.546,-26.409L-42.841,-14.886L-49.255,-26.409L-55.945,-26.409L-57.174,0L-50.444,0L-49.93,-15.48L-44.78,-6.454L-40.94,-6.454L-36.308,-15.48L-35.674,0L-28.587,0L-29.814,-26.409L-36.546,-26.409ZM-69.844,0L-62.835,0L-62.835,-26.409L-69.844,-26.409L-69.844,0ZM-94.788,-26.409L-94.788,0L-74.95,0L-74.95,-6.057L-87.78,-6.057L-87.78,-10.572L-77.921,-10.572L-77.921,-16.273L-87.78,-16.273L-87.78,-20.35L-75.782,-20.35L-75.782,-26.409L-94.788,-26.409ZM-108.011,-26.409L-108.011,-16.748L-117.751,-16.748L-117.751,-26.409L-124.759,-26.409L-124.759,0L-117.751,0L-117.751,-10.336L-108.011,-10.336L-108.011,0L-101.003,0L-101.003,-26.409L-108.011,-26.409Z" style="fill:rgb(26,22,25);fill-rule:nonzero;"/></g><g transform="matrix(0.999226,0,0,0.256991,175.115,15.077)"><path d="M0,25.734L6.93,25.734L6.93,10.57L17.461,25.734L23.439,25.734L23.439,-0.673L16.512,-0.673L16.512,14.056L6.374,-0.673L0,-0.673L0,25.734ZM29.656,25.734L49.492,25.734L49.492,19.675L36.664,19.675L36.664,15.163L46.523,15.163L46.523,9.463L36.664,9.463L36.664,5.382L48.662,5.382L48.662,-0.673L29.656,-0.673L29.656,25.734ZM54.44,15.44C54.44,17.155 54.717,18.692 55.271,20.053C55.825,21.412 56.612,22.56 57.627,23.498C58.645,24.433 59.853,25.156 61.25,25.655C62.649,26.157 64.181,26.407 65.844,26.407C67.507,26.407 69.031,26.157 70.416,25.655C71.803,25.156 73.003,24.427 74.02,23.479C75.035,22.527 75.822,21.375 76.377,20.012C76.93,18.655 77.207,17.131 77.207,15.44L77.207,-0.673L70.119,-0.673L70.119,14.805C70.119,16.231 69.789,17.414 69.129,18.349C68.469,19.287 67.361,19.755 65.805,19.755C64.246,19.755 63.132,19.295 62.459,18.37C61.785,17.447 61.449,16.259 61.449,14.805L61.449,-0.673L54.44,-0.673L54.44,15.44ZM83.266,25.734L103.102,25.734L103.102,19.675L90.273,19.675L90.273,15.163L100.133,15.163L100.133,9.463L90.273,9.463L90.273,5.382L102.27,5.382L102.27,-0.673L83.266,-0.673L83.266,25.734Z" style="fill:rgb(26,22,25);fill-rule:nonzero;"/></g><g transform="matrix(0.999226,0,0,0.256991,298.225,30.2319)"><path d="M0,-59.486L22.831,-59.486C27.408,-59.486 31.646,-58.896 35.54,-57.706C39.433,-56.514 42.808,-54.701 45.663,-52.262C48.519,-49.825 50.746,-46.701 52.353,-42.899C53.954,-39.093 54.76,-34.606 54.76,-29.43C54.76,-24.497 53.94,-20.203 52.308,-16.544C50.67,-12.889 48.427,-9.826 45.574,-7.361C42.72,-4.893 39.331,-3.05 35.407,-1.83C31.481,-0.611 27.259,0 22.739,0L0,0L0,-59.486ZM22.206,-13.915C27.378,-13.915 31.376,-15.387 34.204,-18.33C37.024,-21.271 38.437,-25.093 38.437,-29.788C38.437,-32.165 38.11,-34.32 37.458,-36.256C36.803,-38.189 35.806,-39.853 34.47,-41.249C33.131,-42.647 31.45,-43.734 29.431,-44.506C27.408,-45.276 25.001,-45.666 22.206,-45.666L15.787,-45.666L15.787,-13.915L22.206,-13.915Z" style="fill:rgb(26,22,25);fill-rule:nonzero;"/></g><g transform="matrix(0.999226,0,0,0.256991,521.17,14.9446)"><path d="M0,59.308C-3.241,45.649 -8.124,37.459 -15.154,33.791C-17.893,32.375 -20.769,31.687 -23.952,31.687C-31.172,31.687 -38.749,35.349 -45.444,38.586L-45.88,38.793C-50.938,41.201 -56.171,43.689 -60.898,44.633C-62.91,45.023 -64.791,45.22 -66.494,45.22C-72.783,45.22 -75.325,42.574 -76.359,41.496C-83.827,33.337 -81.538,13.072 -80.286,5.111L-79.347,0L-92.437,0L-93.313,5.111C-95.187,17.803 -96.277,38.946 -85.7,50.436C-82.429,54.007 -76.446,58.263 -66.524,58.263L-66.521,58.263C-63.994,58.263 -61.298,57.988 -58.501,57.445C-51.994,56.192 -45.878,53.241 -39.966,50.391C-34.243,47.625 -28.328,44.766 -24.105,44.766C-22.915,44.766 -21.874,44.995 -21.034,45.439C-18.82,46.57 -15.845,49.982 -13.233,59.308L0,59.308Z" style="fill:rgb(26,22,25);fill-rule:nonzero;"/></g><g transform="matrix(0.999226,0,0,0.256991,450.077,15.7465)"><path d="M0,15.744C0,14.637 0.24,13.64 0.715,12.758C1.189,11.876 1.777,11.077 2.478,10.364C3.18,9.654 3.949,8.997 4.784,8.398C5.622,7.8 6.392,7.24 7.094,6.72C7.793,6.197 8.382,5.693 8.857,5.21C9.333,4.723 9.57,4.221 9.57,3.7C9.57,3.223 9.367,2.787 8.959,2.393C8.553,1.996 7.929,1.798 7.094,1.798C6.641,1.798 6.227,1.879 5.854,2.036C5.482,2.195 5.148,2.387 4.854,2.612C4.559,2.839 4.311,3.083 4.106,3.343C3.905,3.603 3.733,3.834 3.598,4.037L-0.543,1.187C-0.201,0.623 0.221,0.08 0.73,-0.441C1.24,-0.961 1.839,-1.417 2.53,-1.816C3.219,-2.21 4.004,-2.528 4.888,-2.766C5.77,-3.001 6.754,-3.123 7.84,-3.123C9.038,-3.123 10.102,-2.941 11.029,-2.58C11.958,-2.218 12.731,-1.735 13.353,-1.136C13.976,-0.537 14.45,0.142 14.778,0.9C15.106,1.656 15.271,2.43 15.271,3.223C15.271,4.196 15.065,5.072 14.66,5.854C14.254,6.633 13.738,7.347 13.116,7.99C12.492,8.636 11.816,9.218 11.08,9.739C10.344,10.259 9.661,10.75 9.026,11.215C8.395,11.678 7.861,12.114 7.432,12.522C7.003,12.927 6.776,13.347 6.754,13.776L15.34,13.776L15.34,18.867L0,18.867L0,15.744Z" style="fill:rgb(26,22,25);fill-rule:nonzero;"/></g><g transform="matrix(0.999226,0,0,0.256991,477.135,14.9446)"><path d="M0,22.53C-1.401,22.53 -2.637,22.258 -3.698,21.714C-4.762,21.171 -5.649,20.403 -6.362,19.407C-7.072,18.412 -7.612,17.225 -7.974,15.845C-8.338,14.466 -8.52,12.938 -8.52,11.265C-8.52,9.59 -8.338,8.062 -7.974,6.682C-7.612,5.303 -7.072,4.117 -6.362,3.12C-5.649,2.125 -4.762,1.354 -3.698,0.811C-2.637,0.27 -1.401,0 0,0C1.493,0 2.777,0.27 3.852,0.811C4.924,1.354 5.804,2.125 6.481,3.12C7.159,4.117 7.664,5.303 7.994,6.682C8.32,8.062 8.483,9.59 8.483,11.265C8.483,12.938 8.32,14.466 7.994,15.845C7.664,17.225 7.159,18.412 6.481,19.407C5.804,20.403 4.924,21.171 3.852,21.714C2.777,22.258 1.493,22.53 0,22.53M0,17.303C0.545,17.303 0.984,17.144 1.324,16.828C1.663,16.51 1.934,16.083 2.141,15.54C2.344,14.996 2.483,14.358 2.562,13.621C2.642,12.888 2.68,12.101 2.68,11.265C2.68,10.426 2.642,9.639 2.562,8.906C2.483,8.171 2.344,7.531 2.141,6.988C1.934,6.445 1.663,6.015 1.324,5.697C0.984,5.384 0.545,5.224 0,5.224C-0.543,5.224 -0.991,5.384 -1.34,5.697C-1.69,6.015 -1.961,6.445 -2.156,6.988C-2.349,7.531 -2.483,8.171 -2.563,8.906C-2.641,9.639 -2.679,10.426 -2.679,11.265C-2.679,12.101 -2.641,12.888 -2.563,13.621C-2.483,14.358 -2.349,14.996 -2.156,15.54C-1.961,16.083 -1.69,16.51 -1.34,16.828C-0.991,17.144 -0.543,17.303 0,17.303" style="fill:rgb(26,22,25);fill-rule:nonzero;"/></g><g transform="matrix(0.999226,0,0,0.256991,488.118,15.7465)"><path d="M0,15.744C0,14.637 0.238,13.64 0.712,12.758C1.19,11.876 1.776,11.077 2.478,10.364C3.181,9.654 3.949,8.997 4.787,8.398C5.622,7.8 6.395,7.24 7.097,6.72C7.793,6.197 8.387,5.693 8.86,5.21C9.334,4.723 9.573,4.221 9.573,3.7C9.573,3.223 9.367,2.787 8.959,2.393C8.554,1.996 7.932,1.798 7.097,1.798C6.642,1.798 6.228,1.879 5.855,2.036C5.482,2.195 5.147,2.387 4.854,2.612C4.561,2.839 4.31,3.083 4.106,3.343C3.905,3.603 3.733,3.834 3.599,4.037L-0.542,1.187C-0.199,0.623 0.224,0.08 0.733,-0.441C1.241,-0.961 1.839,-1.417 2.53,-1.816C3.221,-2.21 4.005,-2.528 4.889,-2.766C5.769,-3.001 6.754,-3.123 7.841,-3.123C9.038,-3.123 10.102,-2.941 11.029,-2.58C11.958,-2.218 12.73,-1.735 13.356,-1.136C13.978,-0.537 14.451,0.142 14.781,0.9C15.109,1.656 15.271,2.43 15.271,3.223C15.271,4.196 15.069,5.072 14.661,5.854C14.252,6.633 13.739,7.347 13.116,7.99C12.495,8.636 11.816,9.218 11.08,9.739C10.345,10.259 9.659,10.75 9.027,11.215C8.395,11.678 7.862,12.114 7.431,12.522C7.004,12.927 6.777,13.347 6.754,13.776L15.342,13.776L15.342,18.867L0,18.867L0,15.744Z" style="fill:rgb(26,22,25);fill-rule:nonzero;"/></g><g transform="matrix(0.999226,0,0,0.256991,509.175,16.8715)"><path d="M0,8.143C0.611,8.709 1.262,9.173 1.954,9.535C2.644,9.896 3.404,10.076 4.24,10.076C5.348,10.076 6.173,9.789 6.701,9.213C7.232,8.635 7.499,7.997 7.499,7.296C7.499,6.935 7.431,6.584 7.295,6.243C7.162,5.904 6.955,5.599 6.684,5.326C6.413,5.054 6.076,4.834 5.667,4.665C5.261,4.496 4.799,4.411 4.273,4.411C3.867,4.411 3.383,4.463 2.817,4.564C2.25,4.665 1.731,4.841 1.256,5.091L-1.187,3.29L0.41,-6.889L12.386,-6.889L12.386,-2.036L4.208,-2.036L3.8,0.68C3.961,0.632 4.265,0.589 4.718,0.543C5.17,0.498 5.54,0.473 5.836,0.473C6.899,0.473 7.877,0.638 8.773,0.967C9.666,1.295 10.434,1.753 11.078,2.342C11.726,2.929 12.227,3.651 12.588,4.513C12.953,5.372 13.135,6.324 13.135,7.362C13.135,8.403 12.953,9.388 12.588,10.313C12.227,11.245 11.689,12.057 10.976,12.759C10.265,13.461 9.396,14.012 8.366,14.421C7.336,14.828 6.141,15.032 4.785,15.032C3.043,15.032 1.555,14.753 0.323,14.2C-0.911,13.646 -2.014,12.917 -2.984,12.011L0,8.143Z" style="fill:rgb(26,22,25);fill-rule:nonzero;"/></g><g transform="matrix(0.999226,0,0,0.256991,363.644,30.2319)"><path d="M0,-59.486L22.83,-59.486C27.408,-59.486 31.644,-58.896 35.539,-57.706C39.433,-56.514 42.808,-54.701 45.662,-52.262C48.518,-49.825 50.746,-46.701 52.351,-42.899C53.954,-39.093 54.76,-34.606 54.76,-29.43C54.76,-24.497 53.939,-20.203 52.307,-16.544C50.67,-12.889 48.426,-9.826 45.573,-7.361C42.719,-4.893 39.331,-3.05 35.406,-1.83C31.481,-0.611 27.258,0 22.738,0L0,0L0,-59.486ZM22.206,-13.915C27.376,-13.915 31.375,-15.387 34.203,-18.33C37.023,-21.271 38.436,-25.093 38.436,-29.788C38.436,-32.165 38.111,-34.32 37.457,-36.256C36.801,-38.189 35.807,-39.853 34.469,-41.249C33.131,-42.647 31.449,-43.734 29.43,-44.506C27.408,-45.276 24.999,-45.666 22.206,-45.666L15.785,-45.666L15.785,-13.915L22.206,-13.915Z" style="fill:rgb(26,22,25);fill-rule:nonzero;"/></g></g></g></g></svg>