<?xml version="1.0" encoding="UTF-8" standalone="no"?>
<!-- Created with Inkscape (http://www.inkscape.org/) -->

<svg
   xmlns:dc="http://purl.org/dc/elements/1.1/"
   xmlns:cc="http://creativecommons.org/ns#"
   xmlns:rdf="http://www.w3.org/1999/02/22-rdf-syntax-ns#"
   xmlns:svg="http://www.w3.org/2000/svg"
   xmlns="http://www.w3.org/2000/svg"
   xmlns:sodipodi="http://sodipodi.sourceforge.net/DTD/sodipodi-0.dtd"
   xmlns:inkscape="http://www.inkscape.org/namespaces/inkscape"
   width="50cm"
   height="50cm"
   viewBox="0 0 500 500"
   version="1.1"
   id="svg1127"
   inkscape:export-filename="/home/handrij/rabatz/website/github/KickerRabatz.github.io/images/briefkopf/briefkopf.png"
   inkscape:export-xdpi="299.85501"
   inkscape:export-ydpi="299.85501"
   inkscape:version="0.92.4 (unknown)"
   sodipodi:docname="logo.svg">
  <defs
     id="defs1121">
    <marker
       inkscape:isstock="true"
       style="overflow:visible"
       id="marker1763"
       refX="0"
       refY="0"
       orient="auto"
       inkscape:stockid="DotS">
      <path
         inkscape:connector-curvature="0"
         transform="matrix(0.2,0,0,0.2,1.48,0.2)"
         style="fill:#000000;fill-opacity:1;fill-rule:evenodd;stroke:#000000;stroke-width:1.00000003pt;stroke-opacity:1"
         d="m -2.5,-1 c 0,2.76 -2.24,5 -5,5 -2.76,0 -5,-2.24 -5,-5 0,-2.76 2.24,-5 5,-5 2.76,0 5,2.24 5,5 z"
         id="path1761" />
    </marker>
    <marker
       inkscape:isstock="true"
       style="overflow:visible"
       id="marker1699"
       refX="0"
       refY="0"
       orient="auto"
       inkscape:stockid="DotS">
      <path
         inkscape:connector-curvature="0"
         transform="matrix(0.2,0,0,0.2,1.48,0.2)"
         style="fill:#000000;fill-opacity:1;fill-rule:evenodd;stroke:#000000;stroke-width:1.00000003pt;stroke-opacity:1"
         d="m -2.5,-1 c 0,2.76 -2.24,5 -5,5 -2.76,0 -5,-2.24 -5,-5 0,-2.76 2.24,-5 5,-5 2.76,0 5,2.24 5,5 z"
         id="path1697" />
    </marker>
    <marker
       inkscape:isstock="true"
       style="overflow:visible"
       id="marker1411"
       refX="0"
       refY="0"
       orient="auto"
       inkscape:stockid="DotS">
      <path
         inkscape:connector-curvature="0"
         transform="matrix(0.2,0,0,0.2,1.48,0.2)"
         style="fill:#000000;fill-opacity:1;fill-rule:evenodd;stroke:#000000;stroke-width:1.00000003pt;stroke-opacity:1"
         d="m -2.5,-1 c 0,2.76 -2.24,5 -5,5 -2.76,0 -5,-2.24 -5,-5 0,-2.76 2.24,-5 5,-5 2.76,0 5,2.24 5,5 z"
         id="path1409" />
    </marker>
    <marker
       inkscape:isstock="true"
       style="overflow:visible"
       id="marker1359"
       refX="0"
       refY="0"
       orient="auto"
       inkscape:stockid="DotS">
      <path
         inkscape:connector-curvature="0"
         transform="matrix(0.2,0,0,0.2,1.48,0.2)"
         style="fill:#000000;fill-opacity:1;fill-rule:evenodd;stroke:#000000;stroke-width:1.00000003pt;stroke-opacity:1"
         d="m -2.5,-1 c 0,2.76 -2.24,5 -5,5 -2.76,0 -5,-2.24 -5,-5 0,-2.76 2.24,-5 5,-5 2.76,0 5,2.24 5,5 z"
         id="path1357" />
    </marker>
    <marker
       inkscape:isstock="true"
       style="overflow:visible"
       id="marker1023"
       refX="0"
       refY="0"
       orient="auto"
       inkscape:stockid="DotS">
      <path
         inkscape:connector-curvature="0"
         transform="matrix(0.2,0,0,0.2,1.48,0.2)"
         style="fill:#000000;fill-opacity:1;fill-rule:evenodd;stroke:#000000;stroke-width:1.00000003pt;stroke-opacity:1"
         d="m -2.5,-1 c 0,2.76 -2.24,5 -5,5 -2.76,0 -5,-2.24 -5,-5 0,-2.76 2.24,-5 5,-5 2.76,0 5,2.24 5,5 z"
         id="path1021" />
    </marker>
    <marker
       inkscape:isstock="true"
       style="overflow:visible"
       id="marker983"
       refX="0"
       refY="0"
       orient="auto"
       inkscape:stockid="DotS">
      <path
         inkscape:connector-curvature="0"
         transform="matrix(0.2,0,0,0.2,1.48,0.2)"
         style="fill:#000000;fill-opacity:1;fill-rule:evenodd;stroke:#000000;stroke-width:1.00000003pt;stroke-opacity:1"
         d="m -2.5,-1 c 0,2.76 -2.24,5 -5,5 -2.76,0 -5,-2.24 -5,-5 0,-2.76 2.24,-5 5,-5 2.76,0 5,2.24 5,5 z"
         id="path981" />
    </marker>
    <marker
       inkscape:stockid="DotS"
       orient="auto"
       refY="0"
       refX="0"
       id="marker2100-3"
       style="overflow:visible"
       inkscape:isstock="true"
       inkscape:collect="always">
      <path
         id="path2098-6"
         d="m -2.5,-1 c 0,2.76 -2.24,5 -5,5 -2.76,0 -5,-2.24 -5,-5 0,-2.76 2.24,-5 5,-5 2.76,0 5,2.24 5,5 z"
         style="fill:#000000;fill-opacity:1;fill-rule:evenodd;stroke:#000000;stroke-width:1.00000003pt;stroke-opacity:1"
         transform="matrix(0.2,0,0,0.2,1.48,0.2)"
         inkscape:connector-curvature="0" />
    </marker>
    <marker
       inkscape:stockid="DotS"
       orient="auto"
       refY="0"
       refX="0"
       id="marker2670-7"
       style="overflow:visible"
       inkscape:isstock="true"
       inkscape:collect="always">
      <path
         id="path2668-5"
         d="m -2.5,-1 c 0,2.76 -2.24,5 -5,5 -2.76,0 -5,-2.24 -5,-5 0,-2.76 2.24,-5 5,-5 2.76,0 5,2.24 5,5 z"
         style="fill:#000000;fill-opacity:1;fill-rule:evenodd;stroke:#000000;stroke-width:1.00000003pt;stroke-opacity:1"
         transform="matrix(0.2,0,0,0.2,1.48,0.2)"
         inkscape:connector-curvature="0" />
    </marker>
    <marker
       inkscape:stockid="DotS"
       orient="auto"
       refY="0"
       refX="0"
       id="marker2100"
       style="overflow:visible"
       inkscape:isstock="true"
       inkscape:collect="always">
      <path
         id="path2098"
         d="m -2.5,-1 c 0,2.76 -2.24,5 -5,5 -2.76,0 -5,-2.24 -5,-5 0,-2.76 2.24,-5 5,-5 2.76,0 5,2.24 5,5 z"
         style="fill:#000000;fill-opacity:1;fill-rule:evenodd;stroke:#000000;stroke-width:1.00000003pt;stroke-opacity:1"
         transform="matrix(0.2,0,0,0.2,1.48,0.2)"
         inkscape:connector-curvature="0" />
    </marker>
    <marker
       inkscape:stockid="DotS"
       orient="auto"
       refY="0"
       refX="0"
       id="marker2670"
       style="overflow:visible"
       inkscape:isstock="true"
       inkscape:collect="always">
      <path
         id="path2668"
         d="m -2.5,-1 c 0,2.76 -2.24,5 -5,5 -2.76,0 -5,-2.24 -5,-5 0,-2.76 2.24,-5 5,-5 2.76,0 5,2.24 5,5 z"
         style="fill:#000000;fill-opacity:1;fill-rule:evenodd;stroke:#000000;stroke-width:1.00000003pt;stroke-opacity:1"
         transform="matrix(0.2,0,0,0.2,1.48,0.2)"
         inkscape:connector-curvature="0" />
    </marker>
  </defs>
  <sodipodi:namedview
     id="base"
     pagecolor="#ffffff"
     bordercolor="#666666"
     borderopacity="1.0"
     inkscape:pageopacity="0.0"
     inkscape:pageshadow="2"
     inkscape:zoom="1.3056923"
     inkscape:cx="241.75397"
     inkscape:cy="926.95661"
     inkscape:document-units="mm"
     inkscape:current-layer="layer1"
     showgrid="false"
     units="cm"
     inkscape:window-width="1920"
     inkscape:window-height="983"
     inkscape:window-x="0"
     inkscape:window-y="27"
     inkscape:window-maximized="1" />
  <metadata
     id="metadata1124">
    <rdf:RDF>
      <cc:Work
         rdf:about="">
        <dc:format>image/svg+xml</dc:format>
        <dc:type
           rdf:resource="http://purl.org/dc/dcmitype/StillImage" />
        <dc:title />
      </cc:Work>
    </rdf:RDF>
  </metadata>
  <g
     inkscape:label="Layer 1"
     inkscape:groupmode="layer"
     id="layer1"
     transform="translate(0,202.99998)">
    <flowRoot
       xml:space="preserve"
       id="flowRoot4518"
       style="font-style:normal;font-variant:normal;font-weight:normal;font-stretch:normal;font-size:85.33333588px;line-height:25px;font-family:MnSymbol;-inkscape-font-specification:MnSymbol;letter-spacing:0px;word-spacing:0px;fill:#000000;fill-opacity:1;stroke:none;stroke-width:1px;stroke-linecap:butt;stroke-linejoin:miter;stroke-opacity:1"
       transform="matrix(0.41558952,0,0,0.41558952,153.10356,-100.79942)"><flowRegion
         id="flowRegion4520"
         style="font-style:normal;font-variant:normal;font-weight:normal;font-stretch:normal;font-size:85.33333588px;font-family:MnSymbol;-inkscape-font-specification:MnSymbol"><rect
           id="rect4522"
           width="1512.9467"
           height="477.67685"
           x="53.125"
           y="51.624008"
           style="font-style:normal;font-variant:normal;font-weight:normal;font-stretch:normal;font-size:85.33333588px;font-family:MnSymbol;-inkscape-font-specification:MnSymbol" /></flowRegion><flowPara
         style="font-style:normal;font-variant:normal;font-weight:bold;font-stretch:normal;font-size:184.90863037px;font-family:Tangerine;-inkscape-font-specification:'Tangerine Bold'"
         id="flowPara819">Rabatz</flowPara></flowRoot>    <text
       xml:space="preserve"
       style="font-style:normal;font-weight:normal;font-size:23.07246017px;line-height:14.42028618px;font-family:Sans;letter-spacing:0px;word-spacing:0px;fill:#000000;fill-opacity:1;stroke:none;stroke-width:0.57681149px;stroke-linecap:butt;stroke-linejoin:miter;stroke-opacity:1"
       x="213.51273"
       y="-23.969351"
       id="text825"><tspan
         sodipodi:role="line"
         id="tspan823"
         x="213.51273"
         y="-23.969351"
         style="font-style:normal;font-variant:normal;font-weight:bold;font-stretch:normal;font-size:20.49228859px;font-family:Tangerine;-inkscape-font-specification:'Tangerine Bold';stroke-width:0.57681149px">Kickermanufaktur</tspan></text>
    <path
       style="opacity:1;fill:none;fill-rule:evenodd;stroke:#000000;stroke-width:1.60155678;stroke-linecap:butt;stroke-linejoin:round;stroke-miterlimit:4;stroke-dasharray:none;stroke-dashoffset:0.95399994;stroke-opacity:1;marker-start:url(#marker2100);marker-end:url(#marker2670)"
       d="m 343.8317,-47.689766 -153.39623,-0.0358"
       id="path829"
       inkscape:connector-curvature="0" />
    <path
       style="opacity:1;fill:none;fill-rule:evenodd;stroke:#000000;stroke-width:1.55334294;stroke-linecap:butt;stroke-linejoin:round;stroke-miterlimit:4;stroke-dasharray:none;stroke-dashoffset:0.95399994;stroke-opacity:1;marker-start:url(#marker2100-3);marker-end:url(#marker2670-7)"
       d="m 336.55889,-42.303596 -139.80909,-0.0369"
       id="path829-3"
       inkscape:connector-curvature="0" />
    <path
       style="fill:#000000;stroke-width:0.29481894"
       d="m 257.46525,-127.5 c -4.47148,-1.5891 -5.10625,-1.99509 -10.76594,-6.88631 -0.34368,-0.29701 -1.89924,-2.61175 -3.45679,-5.14395 l -2.8319,-4.60382 -0.73385,-3.79846 c -1.06217,-5.49779 -2.02486,-11.09995 -1.9953,-11.61113 0.11193,-1.93618 1.29806,-5.68259 3.22029,-10.17121 3.24223,-7.57114 4.70612,-9.31268 11.4504,-13.62177 2.61546,-1.67106 3.93351,-2.29285 6.67463,-3.14854 3.94772,-1.23239 4.02852,-1.24493 3.37823,-0.52638 -0.26871,0.29693 -0.38877,0.64982 -0.26681,0.78429 0.12197,0.13448 0.0812,0.16473 -0.0905,0.0669 -0.17171,-0.0975 -0.68046,0.2129 -1.13056,0.6898 -0.45009,0.47686 -0.94761,0.86707 -1.10558,0.86707 -0.15797,0 -0.19256,0.15316 -0.0769,0.34035 0.11804,0.19096 0.082,0.26101 -0.0821,0.15964 -0.16085,-0.0995 -0.76991,0.31121 -1.35348,0.91257 l -1.06102,1.09337 1.11093,1.54825 c 0.61101,0.85158 1.22086,1.44853 1.35519,1.32669 0.13435,-0.12184 0.15989,-0.0736 0.0567,0.10722 -0.18519,0.32476 0.91397,2.16176 2.22104,3.71219 l 0.67272,0.79794 6.78084,0.044 c 3.72946,0.0242 6.94326,0.03 7.14179,0.0126 0.45365,-0.0402 1.31008,-1.65301 1.02768,-1.93541 -0.11515,-0.11516 -0.0767,-0.18259 0.0855,-0.14982 0.6998,0.14115 0.79332,-0.0493 0.29482,-0.60006 -0.58571,-0.64715 -1.03187,-0.76545 -1.03187,-0.27374 0,0.3951 -0.7449,1.15829 -1.13061,1.15829 -0.15855,0 -0.22286,0.29842 -0.1429,0.66327 0.0856,0.39079 0.044,0.53078 -0.1013,0.34083 -0.14953,-0.19551 -1.66882,-0.34911 -3.85721,-0.39006 -3.37668,-0.0626 -3.59924,-0.0324 -3.43631,0.47003 0.14054,0.43353 0.11538,0.4543 -0.13015,0.10727 -0.16739,-0.23647 -0.67741,-0.45711 -1.13338,-0.49022 -0.45596,-0.0334 -1.39746,-0.0968 -2.09221,-0.14149 -0.87126,-0.056 -1.21899,-0.19644 -1.12074,-0.45241 0.0783,-0.20418 -0.42559,-1.07464 -1.11982,-1.93439 -0.69423,-0.85981 -1.54029,-2.02797 -1.88011,-2.59588 l -0.61786,-1.03272 1.97383,-2.13663 c 1.08561,-1.17518 2.17729,-2.13664 2.42596,-2.13664 0.24867,0 0.62081,-0.16584 0.82697,-0.36857 0.30059,-0.29548 0.35607,-0.28086 0.28008,0.0735 -0.074,0.34543 0.19566,0.4346 1.23192,0.40725 2.80409,-0.0743 4.71221,-0.26856 4.71461,-0.48092 0.002,-0.1216 0.13516,-0.22113 0.29731,-0.22113 0.16215,0 0.29482,0.20365 0.29482,0.45261 0,0.35293 0.1231,0.38677 0.55868,0.15359 0.40925,-0.21904 0.64926,-0.18985 0.89734,0.10906 0.18626,0.22447 0.56503,0.37138 0.84171,0.32651 0.27668,-0.045 0.69436,0.0669 0.92817,0.24905 0.32496,0.25278 0.37295,0.24388 0.20371,-0.0378 -0.12699,-0.21135 -0.0736,-0.36848 0.12521,-0.36848 0.19585,0 0.28264,0.24455 0.19954,0.56235 -0.17075,0.65296 2.18771,3.16426 2.68379,2.85761 0.16607,-0.10263 0.39794,-0.031 0.51528,0.15862 0.13324,0.21556 0.0855,0.26619 -0.12704,0.13482 -0.1872,-0.11574 -0.34037,-0.0677 -0.34037,0.10746 0,0.18777 0.28793,0.24552 0.70379,0.14116 0.52246,-0.13114 0.82455,-0.008 1.1725,0.49254 0.60279,0.86063 0.36435,1.10368 -0.4022,0.40996 -0.32628,-0.29529 -0.68088,-0.44932 -0.78798,-0.34214 -0.10712,0.10712 -0.0322,0.19469 0.16661,0.19469 0.19875,0 0.28503,0.12353 0.19174,0.27447 -0.0933,0.15093 -0.0363,0.35685 0.12673,0.45764 0.18552,0.11462 0.11951,0.45304 -0.17651,0.90482 -0.70707,1.07904 0.0374,0.87186 0.82104,-0.22853 0.68275,-0.95885 0.75887,-2.10706 0.18599,-2.80552 -0.16479,-0.20089 -0.43774,-0.27989 -0.60657,-0.17558 -0.16883,0.10437 -0.22326,0.0543 -0.12096,-0.11124 0.34563,-0.55924 -0.78444,-1.19173 -1.94773,-1.09017 -0.76475,0.0668 -1.05186,-0.008 -0.91261,-0.23124 0.13187,-0.21338 0.0677,-0.24504 -0.18276,-0.0903 -0.25285,0.15631 -0.31468,0.12329 -0.17933,-0.0957 0.11364,-0.18385 0.0647,-0.59933 -0.10867,-0.92336 -0.25807,-0.48228 -0.2338,-0.55784 0.13377,-0.41683 0.24698,0.0948 0.44905,0.0257 0.44905,-0.15404 0,-0.29842 -0.40025,-0.44936 -0.95816,-0.36126 -0.12161,0.0194 -0.18794,-0.12673 -0.1474,-0.32418 0.0414,-0.2019 -0.37794,-0.44302 -0.95817,-0.55082 l -1.03186,-0.19169 1.17927,-0.0286 c 1.22859,-0.0291 2.48276,0.47434 2.44569,0.98261 -0.0119,0.16212 0.42807,0.50779 0.97754,0.76803 1.21219,0.5741 3.00907,0.94877 2.78108,0.57986 -0.09,-0.14556 -0.69359,-0.35424 -1.34134,-0.46374 -0.64775,-0.10935 -1.17773,-0.32776 -1.17773,-0.48528 0,-0.15742 -0.1235,-0.20994 -0.27445,-0.11666 -0.15094,0.0933 -0.35778,0.0349 -0.45963,-0.13002 -0.27233,-0.4406 0.0834,-0.37617 2.23996,0.40604 2.0808,0.75476 6.64797,3.73528 6.53147,4.26238 -0.0386,0.17465 0.0941,0.2583 0.29482,0.18593 0.20075,-0.0727 0.69666,0.14716 1.10203,0.4878 l 0.73705,0.61946 -0.88445,-0.49477 -0.88446,-0.49471 0.69405,0.60552 c 0.38172,0.33313 0.81267,0.53228 0.95764,0.44268 0.39892,-0.24654 1.34416,0.52173 2.79599,2.27261 0.71998,0.86828 1.4068,1.71196 1.52628,1.87475 0.11948,0.16289 0.95386,1.22422 1.85419,2.35859 1.45355,1.83138 1.83204,2.62399 3.37828,7.07437 1.70668,4.9122 1.73968,5.06729 1.65833,7.79309 -0.0821,2.75358 -0.70103,5.64747 -2.87287,13.43384 -0.7957,2.85277 -0.9303,3.09137 -4.15725,7.37052 -3.08827,4.09513 -3.57951,4.60216 -6.64188,6.85447 -1.81883,1.3378 -3.4695,2.43232 -3.66816,2.43232 -0.19867,0 -1.81885,0.59695 -3.60041,1.32669 l -3.23921,1.32669 -7.16711,-0.0176 -7.16712,-0.0175 z m 17.00279,-0.31239 0.0205,-0.99182 -2.82127,0.0109 c -6.8844,0.0259 -7.26285,-0.0151 -7.63846,-0.83988 -0.18817,-0.41301 -0.34214,-0.81097 -0.34214,-0.88443 0,-0.0736 2.16368,-0.13355 4.80816,-0.13355 3.77123,0 4.93159,0.0934 5.38045,0.4329 0.64117,0.48496 1.01451,0.56602 1.01451,0.22029 0,-0.1272 -0.37574,-0.4532 -0.83496,-0.72448 -0.68537,-0.40481 -1.74391,-0.50017 -5.90829,-0.53201 -3.4112,-0.0259 -5.20572,0.071 -5.4774,0.2966 -0.30532,0.25338 -0.45806,0.24176 -0.625,-0.0476 -0.1215,-0.21059 -0.11235,-0.28447 0.0203,-0.16429 0.25584,0.23174 1.03256,-0.27546 1.03256,-0.67425 0,-0.12987 -0.34425,-0.67751 -0.765,-1.21688 -0.52968,-0.67909 -0.43262,-0.61808 0.31555,0.19848 l 1.08055,1.17927 4.85292,0.0872 4.85293,0.0872 1.23649,-1.17651 c 1.0451,-0.99441 1.15731,-1.20692 0.7249,-1.3729 -0.32638,-0.12519 -0.87696,0.0827 -1.52078,0.57347 -0.95299,0.72689 -1.17861,0.76625 -4.05076,0.70759 l -3.04156,-0.0618 2.95536,-0.0949 c 2.58855,-0.0827 3.06424,-0.18176 3.83264,-0.79584 0.48251,-0.3856 0.81095,-0.75356 0.72988,-0.81766 -0.46422,-0.36738 -5.63192,-2.5896 -6.02202,-2.5896 -0.6678,0 -7.07907,2.38369 -7.19017,2.67334 -0.051,0.13296 -0.26977,0.17383 -0.48612,0.0908 -0.85706,-0.32885 -0.73468,0.62536 0.46852,3.65329 0.69156,1.74028 1.38038,3.33004 1.53071,3.53278 0.20254,0.27303 1.77214,0.3683 6.05992,0.36763 h 5.78657 l 0.0205,-0.99181 z m -11.66584,-0.46306 c 0,-0.71186 0.16395,-0.78373 0.39782,-0.17433 0.0913,0.23809 0.0392,0.5112 -0.11588,0.60705 -0.15506,0.0959 -0.28194,-0.0989 -0.28194,-0.43272 z m 4.20117,0.0627 c 0.60807,-0.0635 1.60308,-0.0635 2.21115,0 0.60806,0.0635 0.11055,0.11567 -1.10558,0.11567 -1.21613,0 -1.71363,-0.0518 -1.10557,-0.11567 z m 4.56969,0.008 c 0.36484,-0.0702 0.96186,-0.0702 1.32669,0 0.36484,0.0702 0.0664,0.12778 -0.66334,0.12778 -0.72968,0 -1.02818,-0.0577 -0.66335,-0.12778 z m -5.89638,-4.70428 c 0.2027,-0.0819 0.53436,-0.0819 0.73706,0 0.20268,0.0819 0.0368,0.14875 -0.36853,0.14875 -0.40538,0 -0.57121,-0.0669 -0.36853,-0.14875 z m -6.76452,4.39649 c -1.00968,-2.09571 -1.7359,-3.66817 -2.09333,-4.53288 -0.29042,-0.70257 -1.18448,-1.65202 -2.60965,-2.77137 -1.19232,-0.93649 -2.78868,-2.21337 -3.54745,-2.83764 -0.75877,-0.62419 -1.44573,-1.13497 -1.52659,-1.13497 -0.0809,0 -0.23684,0.71904 -0.34665,1.59795 -0.19248,1.54062 -0.16416,1.6313 0.78954,2.52877 0.97014,0.913 0.97184,0.91886 0.0886,0.30553 -0.84899,-0.58951 -2.04374,-0.57739 -1.83897,0.0184 0.0474,0.13797 1.32765,1.31055 2.84501,2.60581 2.20411,1.88143 3.27118,2.55969 5.30674,3.37283 2.71548,1.08483 3.10084,1.19615 2.93273,0.84724 z m -2.15375,-1.84265 c -0.48067,-0.20659 -0.49751,-0.25723 -0.0911,-0.27411 0.27419,-0.0117 0.58052,0.11198 0.68073,0.27411 0.20952,0.33896 0.19928,0.33896 -0.58964,0 z m -6.6127,-5.92099 c 0.0114,-0.39186 0.14093,-0.97777 0.28786,-1.30211 0.18618,-0.41092 0.21272,-0.23225 0.0876,0.58968 -0.20843,1.3688 -0.40539,1.74261 -0.37543,0.71243 z m 31.77536,6.80374 c 0.98352,-0.25438 1.24951,-0.44735 1.14151,-0.82835 -0.0775,-0.27311 -0.19015,-0.68077 -0.25046,-0.90582 -0.0625,-0.23341 0.74112,-1.05667 1.87058,-1.91636 1.70033,-1.29409 1.98159,-1.63916 1.99002,-2.44118 0.0224,-2.13549 -0.27002,-2.05074 -4.55414,1.31916 -1.0299,0.81005 -2.77097,5.47588 -1.95578,5.24122 0.26177,-0.0752 1.053,-0.28632 1.75827,-0.46867 z m 4.38825,-2.5545 c 3.29738,-2.50913 3.12784,-2.34817 2.8862,-2.7392 -0.1445,-0.23375 -0.31837,-0.24227 -0.57633,-0.0284 -0.20317,0.16865 -0.47797,0.20826 -0.61066,0.0881 -0.13269,-0.12025 -0.13954,-0.0426 -0.0152,0.17249 0.13912,0.24077 -0.0127,0.61358 -0.39496,0.96968 -0.34155,0.31823 -0.621,0.48052 -0.621,0.36069 0,-0.11985 -0.15604,-0.0618 -0.34677,0.12886 -0.23662,0.23667 -0.46081,0.25213 -0.7058,0.0485 -0.24896,-0.20659 -0.49346,-0.16355 -0.79742,0.1404 -0.2411,0.2411 -0.52049,0.35626 -0.62087,0.25589 -0.10038,-0.10037 -0.18251,0.0343 -0.18251,0.2996 0,0.3062 -0.16044,0.42053 -0.43974,0.31331 -0.56053,-0.21503 -0.91481,0.65269 -0.48025,1.17634 0.17888,0.21553 0.23795,0.47919 0.13125,0.58583 -0.10669,0.10672 -0.10766,0.19405 -10e-4,0.19405 0.10551,0 1.35482,-0.88501 2.77621,-1.96658 z m -11.00866,0.61524 c 0.11019,-0.28714 0.0443,-0.42194 -0.17114,-0.35007 -0.44071,0.14691 -0.68336,0.8169 -0.29585,0.8169 0.15832,0 0.36846,-0.2101 0.46699,-0.46683 z m 11.01335,-9.70147 c 1.2351,-0.80662 1.61098,-1.32994 0.87799,-1.22238 -0.20625,0.0301 -0.83643,0.39654 -1.4004,0.81397 -0.56396,0.41736 -2.16362,1.54322 -3.55479,2.50186 -1.39118,0.95873 -2.47589,1.90357 -2.41048,2.0998 0.0723,0.21695 1.1213,-0.3744 2.67681,-1.50904 1.40684,-1.02625 3.12173,-2.23409 3.81087,-2.68421 z m -7.1641,3.99953 c -0.35205,-0.34239 -3.44873,-1.52174 -3.59961,-1.37081 -0.0614,0.0618 0.59402,0.44518 1.45653,0.85284 1.61389,0.76283 2.65308,1.01405 2.14308,0.51797 z m -30.55878,-2.51807 c -0.10414,-1.06302 -0.57519,-1.05366 -0.93258,0.0184 -0.16644,0.49933 -0.12903,1.03803 0.10749,1.54781 l 0.36279,0.78189 0.27498,-0.72673 c 0.15124,-0.39972 0.23554,-1.12938 0.18732,-1.62152 z m 13.24302,0.5326 c 2.23501,-0.7554 4.07776,-1.3856 4.09501,-1.4004 0.0172,-0.0151 0.11343,-0.45813 0.21374,-0.98513 l 0.18238,-0.95813 h -1.35085 c -1.16191,0 -1.32335,-0.0719 -1.15421,-0.51246 0.16445,-0.42855 0.1034,-0.41652 -0.37299,0.0735 -0.58368,0.60062 -0.57044,1.19933 0.0185,0.83529 0.18036,-0.1114 -0.0435,0.28439 -0.4976,0.87967 -0.98932,1.2971 -1.35536,1.45429 -0.46072,0.19789 0.50045,-0.70283 0.53897,-0.88443 0.18756,-0.88443 -0.46013,0 -1.66166,1.47185 -1.66166,2.03553 0,0.17768 0.15478,0.323 0.34396,0.323 0.18917,0 0.25871,0.0853 0.15453,0.18938 -0.10418,0.10421 -0.39911,0.0159 -0.65541,-0.19731 -0.36717,-0.3047 -0.44683,-0.30721 -0.37564,-0.0117 0.0552,0.22915 -0.45789,0.51822 -1.32052,0.74403 l -1.41085,0.3693 -2.02346,-1.87341 c -1.1129,-1.03042 -2.10354,-1.8734 -2.20144,-1.8734 -0.0979,0 -0.66262,-0.53644 -1.25494,-1.19205 -1.00838,-1.11617 -2.01712,-1.44895 -2.01712,-0.66539 0,0.42337 6.63856,6.25159 7.13947,6.26797 0.19725,0.008 2.18728,-0.60631 4.42229,-1.3617 z m 16.49138,0.60129 c -0.42467,-0.42462 -1.63654,-2.083 -2.69306,-3.68522 -1.88601,-2.86012 -1.9418,-2.91311 -3.06918,-2.91311 -0.71312,0 -1.20837,0.1567 -1.30689,0.41343 -0.22874,0.59602 0.0533,0.76584 1.27234,0.76584 1.01015,0 1.18468,0.14834 2.75369,2.33981 0.92135,1.28682 1.75904,2.55827 1.86155,2.82544 0.16975,0.44235 1.04056,0.96065 1.69235,1.00729 0.14372,0.01 -0.0861,-0.32877 -0.5108,-0.75348 z m 12.27712,-0.56377 c 0.29133,-0.4003 0.39084,-0.72781 0.22111,-0.72781 -0.16971,0 -0.40808,0 -0.52969,0.008 -0.12161,0 -0.30915,0.33478 -0.41674,0.73709 -0.24786,0.9268 0.0443,0.92079 0.72532,-0.0151 z m -28.54347,-2.83982 c 2.20387,-2.44494 2.34595,-2.54715 3.32158,-2.38878 0.86955,0.14107 1.00401,0.0873 0.91555,-0.36612 -0.0761,-0.39036 -0.44293,-0.5631 -1.38095,-0.65035 -1.2646,-0.11758 -1.3038,-0.0924 -3.95803,2.54924 -1.47443,1.4675 -2.71786,2.63106 -2.76315,2.58576 -0.0453,-0.0451 1.10563,-1.30245 2.55764,-2.79368 1.45201,-1.49124 2.64002,-2.88779 2.64002,-3.1034 0,-0.2157 -0.77219,-2.50629 -1.71597,-5.09021 l -1.71598,-4.6981 -2.44134,-0.98261 c -1.72019,-0.69242 -2.67202,-0.924 -3.22224,-0.784 -0.72288,0.18394 -0.6394,0.26318 1.12362,1.0663 1.04749,0.47715 2.19449,0.94031 2.54886,1.02933 0.67945,0.17049 0.69789,0.21043 2.63516,5.71482 0.59924,1.70258 1.20719,3.32068 1.35102,3.59579 0.1827,0.34942 0.12528,0.57639 -0.19057,0.75314 -0.24863,0.13915 -1.43265,1.21755 -2.63116,2.3964 -2.12455,2.08968 -2.19873,2.13306 -2.96305,1.73258 l -0.78394,-0.41075 2.38465,-2.0433 c 1.63002,-1.39672 2.32826,-2.18337 2.20645,-2.48581 -0.098,-0.24336 -0.77037,-2.04941 -1.49412,-4.01349 l -1.31593,-3.57097 -3.05782,-1.39883 c -2.57985,-1.18016 -3.18785,-1.35549 -3.88968,-1.12159 -0.45752,0.15253 -0.82951,0.39897 -0.82664,0.54753 0.0579,2.9963 0.50001,10.89465 0.62076,11.08995 0.0935,0.15143 0.31879,0.13589 0.52618,-0.0359 0.26382,-0.21896 0.71526,0.0585 1.65665,1.01755 0.7117,0.72515 1.46539,1.3185 1.67486,1.3185 0.20946,0 0.38084,0.14048 0.38084,0.31222 0,0.17174 0.15316,0.21753 0.34037,0.10187 0.20323,-0.1256 0.26064,-0.0811 0.14249,0.10981 -0.26121,0.42262 0.87214,1.19598 2.08665,1.4238 0.53257,0.1 0.96832,0.30854 0.96832,0.46356 0,0.15611 -0.2958,0.19096 -0.66334,0.0777 l -0.66335,-0.20391 0.69119,0.74863 c 0.62897,0.68118 0.77715,0.71762 1.64661,0.40506 0.57319,-0.206 1.87652,-1.36529 3.25779,-2.89764 z m -11.27616,-4.374 c 0,-0.56753 0.0607,-0.79969 0.13483,-0.51597 0.0741,0.28381 0.0741,0.74813 0,1.03193 -0.0741,0.28373 -0.13483,0.0518 -0.13483,-0.51596 z m -0.28886,-6.33859 c 0.003,-0.64859 0.0637,-0.87925 0.13416,-0.51254 0.0705,0.36671 0.0679,0.89738 -0.006,1.17927 -0.0738,0.28188 -0.13149,-0.0184 -0.12821,-0.66673 z m 24.43597,13.79752 c -0.31405,-0.12494 -0.32155,-0.20951 -0.0344,-0.38701 0.27181,-0.16798 0.14654,-0.52349 -0.4809,-1.36471 -1.09271,-1.465 -1.25241,-1.56979 -2.39961,-1.57523 -0.85578,0 -0.95816,0.0844 -0.95816,0.82769 0,0.6913 0.22406,0.9441 1.32374,1.49332 0.72806,0.36362 1.47824,0.56561 1.66706,0.44894 0.20396,-0.1261 0.26424,-0.0842 0.14851,0.10297 -0.18835,0.30478 0.23495,0.61382 0.84074,0.61382 0.16215,0 0.11397,-0.0719 -0.10706,-0.15979 z m -27.75785,-2.37332 c 0.003,-0.51104 -0.16357,-0.6633 -0.72776,-0.6633 h -0.73228 l 0.49281,1.03335 c 0.51908,1.08859 0.95845,0.92045 0.96723,-0.37005 z m 35.99119,0.36228 2.23192,-0.74328 0.92752,-1.9838 c 0.79305,-1.69615 0.95191,-2.43258 1.09576,-5.07935 0.0925,-1.70258 0.24135,-3.71714 0.3307,-4.47671 l 0.16246,-1.38101 -1.13425,-0.33988 c -0.97517,-0.29218 -1.48487,-0.23884 -3.63433,0.38 l -2.50009,0.71979 -1.66356,4.24414 -1.66357,4.24406 0.71235,1.17926 c 0.3918,0.64859 1.07308,1.80931 1.51395,2.57941 0.44088,0.77002 0.93381,1.40023 1.09541,1.4004 0.1616,1.2e-4 1.29818,-0.3342 2.52573,-0.74303 z m 11.27721,-2.90609 c 0.0968,-0.2523 -0.24137,-0.30629 -1.20863,-0.19305 -0.73867,0.0865 -1.38714,0.29083 -1.44104,0.45421 -0.1411,0.42763 2.48467,0.16881 2.64967,-0.26116 z m -0.19891,-1.1582 c 0.077,-0.0769 0.7278,-2.28433 1.44616,-4.9051 1.2335,-4.50021 1.27984,-4.80524 0.83355,-5.48633 -0.2599,-0.39664 -0.50958,-0.72121 -0.55482,-0.72121 -0.0452,0 -0.84629,0.99747 -1.78007,2.21661 -1.49036,1.94578 -1.74441,2.47704 -2.07945,4.34861 -0.20992,1.17258 -0.38864,2.77956 -0.39718,3.57114 l -0.0155,1.43925 1.20363,-0.16145 c 0.66199,-0.0888 1.26665,-0.22448 1.34369,-0.30152 z m -48.53906,-1.65888 c 0,-0.39555 -0.24818,-0.60765 -0.81075,-0.6928 -0.75027,-0.11366 -0.73885,-0.12611 0.15302,-0.16707 0.83715,-0.0384 0.94478,-0.13129 0.81917,-0.7075 -0.0796,-0.36479 -0.43576,-2.17309 -0.79163,-4.01833 -0.63638,-3.29981 -0.6716,-3.38109 -2.1373,-4.93829 -0.81964,-0.87075 -1.57093,-1.58315 -1.66952,-1.58315 -0.0986,0 0.19638,2.60938 0.6555,5.79863 0.77908,5.41187 0.80217,5.83474 0.34612,6.33867 -0.46901,0.51823 -0.40979,0.53996 1.47337,0.53996 1.743,0 1.96202,-0.0635 1.96202,-0.57012 z m 20.63732,-2.0464 c 0,-0.46624 0.0764,-1.22941 0.16966,-1.69599 0.15309,-0.76533 0.003,-0.97009 -1.52872,-2.09503 -0.93411,-0.68578 -1.73431,-1.21086 -1.7782,-1.16698 -0.0439,0.0435 0.41184,1.36772 1.01278,2.94186 0.80612,2.11158 1.22789,2.86229 1.60854,2.86288 0.37193,4.8e-4 0.51594,-0.23576 0.51594,-0.84674 z m 8.18291,-1.88009 c 0.52791,-1.49951 0.95908,-2.82561 0.95816,-2.94679 -9.7e-4,-0.12117 -0.8972,0.41777 -1.99171,1.19766 -1.97945,1.41033 -1.9905,1.42596 -2.07915,2.94737 l -0.0891,1.52942 1.12099,-4.8e-4 1.12098,-4.8e-4 z m 0.69943,-5.9867 c 3.20709,-2.09854 5.83726,-3.9671 5.84483,-4.15245 0.0157,-0.38493 -0.692,-0.71996 -1.23921,-0.5865 -0.20269,0.0493 -0.26199,0.0319 -0.13177,-0.0392 0.1302,-0.0711 -0.002,-0.31034 -0.29483,-0.53204 -0.29235,-0.22161 -0.37355,-0.40725 -0.18043,-0.41243 0.19311,-0.008 0.43312,0.1233 0.53332,0.28551 0.10023,0.16211 0.40656,0.28429 0.68075,0.27151 0.27926,-0.0135 0.34373,-0.0863 0.14657,-0.16647 -0.19358,-0.0786 -0.28409,-0.32007 -0.20112,-0.53625 0.14676,-0.38247 -0.93968,-1.63258 -1.41883,-1.63258 -0.13157,0 -0.24856,-0.23216 -0.25995,-0.51587 -0.0177,-0.44118 -0.0574,-0.43058 -0.2741,0.0735 -0.24176,0.56259 -0.25432,0.55915 -0.2741,-0.0735 -0.0226,-0.72509 0.008,-0.74687 0.69053,-0.48504 0.25556,0.098 0.40053,0.28197 0.32218,0.4088 -0.0784,0.12678 0.0551,0.39447 0.29651,0.59478 0.24143,0.2004 0.43898,0.25805 0.43898,0.12803 0,-0.53494 -1.29843,-4.21938 -1.45346,-4.12426 -0.0924,0.0568 -0.18581,-0.24881 -0.20753,-0.67876 -0.0677,-1.34058 -0.63369,-2.40326 -1.2799,-2.40326 -0.32832,0 -0.59694,-0.12024 -0.59694,-0.26726 0,-0.14701 0.29851,-0.19672 0.66334,-0.11056 0.65443,0.15452 0.65542,0.15035 0.0737,-0.31305 -0.4535,-0.36131 -0.48753,-0.47661 -0.1474,-0.49975 0.61619,-0.0416 -0.55929,-0.53204 -1.32669,-0.5531 -0.43221,-0.0116 -0.48465,0.0502 -0.19639,0.23308 0.85247,0.54037 -0.4996,0.5835 -1.54731,0.0493 -0.67446,-0.34384 -1.05709,-0.41703 -1.05711,-0.20215 -3e-5,0.23463 -1.12614,0.33677 -3.71317,0.33677 -2.04222,0 -3.86639,0.0974 -4.05372,0.21652 -0.18732,0.11918 1.41726,0.23526 3.56575,0.25801 2.1485,0.0228 4.03903,0.0744 4.20118,0.11507 0.16214,0.0411 0.7948,0.0903 1.40588,0.11056 l 1.11107,0.0368 1.44255,4.28879 c 0.98391,2.92533 1.52728,4.16726 1.70903,3.90635 0.17932,-0.25738 0.20896,-0.17664 0.0906,0.24697 -0.0967,0.34626 -0.0252,0.95996 0.1588,1.36396 0.27134,0.59551 0.23814,0.88169 -0.17559,1.51311 -0.40057,0.61133 -0.59722,0.70645 -0.91515,0.44263 -0.30452,-0.25273 -0.40494,-0.24973 -0.40494,0.0126 0,0.20021 -0.15673,0.25418 -0.36853,0.12692 -0.24384,-0.14648 -0.22963,-0.0502 0.042,0.28454 0.2258,0.27829 0.3253,0.59119 0.22111,0.69532 -0.10417,0.10422 -0.18942,0.0416 -0.18942,-0.1383 0,-0.41345 -3.05519,0.91102 -4.3289,1.87659 -0.51617,0.39128 -1.08001,0.71144 -1.25298,0.71144 -0.17297,0 -0.31449,0.10359 -0.31449,0.23022 0,0.45856 -1.82422,0.94026 -2.39798,0.63317 -0.30262,-0.16197 -0.55021,-0.23386 -0.55021,-0.1598 0,0.0744 -0.53068,-0.40676 -1.17928,-1.06848 -0.6486,-0.66163 -1.17927,-1.11031 -1.17927,-0.99709 0,0.11332 -0.18509,0.0349 -0.41129,-0.17417 -0.22621,-0.20907 -0.33838,-0.50014 -0.24926,-0.64681 0.0891,-0.14668 0.0181,-0.17766 -0.15799,-0.0686 -0.17599,0.10873 -0.40891,0.0535 -0.5176,-0.12198 -0.10868,-0.17586 -0.39007,-0.24586 -0.62532,-0.15563 -0.23525,0.0903 -0.35414,0.045 -0.26421,-0.10035 0.0899,-0.14561 -0.255,-0.61675 -0.76651,-1.04714 -0.72003,-0.60591 -0.98547,-0.69517 -1.17555,-0.39548 -0.17405,0.27456 -0.24684,0.19842 -0.25005,-0.2615 -0.002,-0.35676 -0.21996,-0.76923 -0.4833,-0.91658 -0.40678,-0.22766 -0.42775,-0.42269 -0.1394,-1.29634 0.18668,-0.56564 0.29121,-1.21453 0.23229,-1.44195 -0.0589,-0.22746 -0.0425,-0.28696 0.0365,-0.13239 0.079,0.15461 0.42904,-0.57513 0.77784,-1.62149 l 0.63417,-1.90267 -0.74168,-0.31223 c -0.50388,-0.21207 -0.62697,-0.38304 -0.38392,-0.53335 0.19676,-0.12155 0.35776,-0.0802 0.35776,0.0912 0,0.73835 0.80981,0.22103 1.24207,-0.79344 0.85572,-2.00816 0.89055,-2.34541 0.25932,-2.51043 -0.33662,-0.0881 -0.64407,0.0184 -0.7347,0.25472 -0.0857,0.2233 -9.7e-4,0.37447 0.18868,0.33594 0.18948,-0.0382 0.35054,0.18254 0.35791,0.49133 0.007,0.32249 -0.21327,0.59478 -0.51899,0.63965 -0.42889,0.0627 -0.46486,0 -0.18501,-0.3404 0.22777,-0.27446 0.23944,-0.41852 0.0338,-0.41852 -0.17244,0 -0.39685,0.13481 -0.4987,0.29959 -0.10185,0.16482 -0.30868,0.2233 -0.45963,0.13007 -0.15095,-0.0934 -0.27445,0.0873 -0.27445,0.40139 0,0.31402 -0.19651,1.04133 -0.43669,1.61616 -0.33731,0.80729 -0.35408,1.07854 -0.0737,1.19196 0.21029,0.085 0.14595,0.1567 -0.15295,0.17015 -0.58152,0.0257 -0.71941,0.60795 -0.14741,0.62194 0.20452,0.008 0.13892,0.14265 -0.1474,0.30946 -0.28377,0.16521 -0.51391,0.45972 -0.51142,0.65432 0.003,0.24523 0.0811,0.23317 0.25378,-0.0392 0.20099,-0.31707 0.28373,-0.30351 0.42711,0.0702 0.0978,0.25491 0.0831,0.44936 -0.0327,0.43208 -0.72722,-0.10838 -1.00228,0.0922 -0.86203,0.62852 0.0849,0.32452 0.0366,0.51722 -0.10732,0.4283 -0.14389,-0.0889 -0.34748,0.37525 -0.45241,1.03151 -0.10494,0.6562 -0.29103,1.19313 -0.41355,1.19313 -0.12251,0 -0.28999,0.25709 -0.37218,0.5714 -0.11186,0.42777 0.23155,0.86043 1.36601,1.7213 6.92577,5.25519 9.5143,7.12717 9.7482,7.04987 0.14997,-0.0493 2.89665,-1.80714 6.10372,-3.90559 z m -16.05627,-5.63346 c -0.41108,-0.41112 -0.19338,-0.96301 0.30448,-0.77195 0.31616,0.12126 0.36988,0.23589 0.14557,0.31068 -0.19549,0.0652 -0.28046,0.23986 -0.1888,0.38813 0.19357,0.31324 0.0258,0.36019 -0.26125,0.0735 z m 19.85115,-0.50895 c 0,-0.0635 0.20588,-0.19489 0.45753,-0.29151 0.26237,-0.10064 0.38071,-0.051 0.27743,0.11589 -0.17314,0.28013 -0.73496,0.41436 -0.73496,0.17562 z m -8.10753,6.16192 c 0.48645,-0.35618 1.07469,-0.70955 1.30719,-0.78526 0.25923,-0.0844 -0.19372,-0.49356 -1.17116,-1.05794 l -1.59389,-0.92016 -1.41983,0.79092 -1.41982,0.79082 0.96948,0.82234 c 0.53321,0.45227 1.10215,0.93179 1.26429,1.06558 0.37343,0.30816 0.94561,0.11236 2.06374,-0.7063 z m 23.36441,-3.49552 c 1.76898,-2.25552 2.20013,-3.14016 1.53039,-3.14016 -0.17172,0 -0.23263,-0.12881 -0.13536,-0.28623 0.0973,-0.15737 -0.0302,-0.68665 -0.2834,-1.17619 -0.25313,-0.4895 -0.45821,-0.9909 -0.45573,-1.11424 0.002,-0.12329 -0.15178,-0.68854 -0.34281,-1.25606 -0.33762,-1.00303 -0.35267,-1.01121 -0.53872,-0.2948 -0.20036,0.77156 -0.0759,1.47356 0.25359,1.42985 0.56811,-0.0752 0.72992,0.088 0.34056,0.34354 -0.36226,0.23782 -0.37104,0.33628 -0.0486,0.54439 0.21654,0.13979 0.39927,0.37195 0.40606,0.51597 0.007,0.14396 0.0782,0.43338 0.15865,0.64308 0.23781,0.61976 -0.10591,0.78841 -1.87638,0.92085 -0.50255,0.0378 -1.89549,1.53455 -1.70889,1.83637 0.0906,0.14662 -0.0109,0.23007 -0.22572,0.18554 -0.21473,-0.044 -0.35398,0.0947 -0.30942,0.30947 0.0445,0.21468 -0.041,0.31498 -0.19022,0.22281 -0.27284,-0.16865 -0.76821,0.65083 -0.66734,1.10388 0.0298,0.1336 -0.0991,0.14831 -0.28626,0.0324 -0.20652,-0.1277 -0.2891,-0.0568 -0.20999,0.18075 0.26663,0.79988 0.7257,0.47821 2.40144,-1.68301 0.94506,-1.2188 1.79639,-2.1379 1.89187,-2.04239 0.0955,0.0955 -0.24656,0.69638 -0.76006,1.3354 -0.63535,0.79054 -0.82492,1.22896 -0.59333,1.37215 0.2289,0.14139 0.26167,0.0744 0.10007,-0.20385 -0.13215,-0.22775 -0.1267,-0.31072 0.0121,-0.18438 0.1388,0.1263 0.28074,0.42308 0.31543,0.6595 0.048,0.32684 -0.0643,0.3616 -0.46893,0.14498 -0.57988,-0.31029 -1.36344,0.29 -0.95991,0.73549 0.1202,0.13264 0.0319,0.13288 -0.19641,0 -0.31724,-0.18409 -0.37668,-0.0944 -0.25241,0.38087 0.1874,0.71662 -0.27824,0.98518 -1.03392,0.59633 -0.28712,-0.14774 -0.67245,-0.17567 -0.85631,-0.0618 -0.19003,0.11739 -0.25359,0.076 -0.14728,-0.0959 0.10284,-0.16647 -0.4405,-0.61811 -1.20743,-1.00377 -0.76693,-0.38576 -1.46076,-0.76759 -1.54184,-0.84867 -0.0811,-0.0811 -0.93396,-0.55024 -1.89531,-1.04254 l -1.74791,-0.89514 -0.80952,-2.49534 c -2.92378,-9.01225 -2.82757,-8.61836 -2.33807,-9.57319 0.24871,-0.48518 0.58488,-0.9816 0.74703,-1.10319 0.18888,-0.14174 0.15939,-0.3087 -0.0821,-0.46481 -0.27411,-0.17726 -0.1691,-0.33841 0.38516,-0.59095 0.45583,-0.20767 0.67781,-0.48344 0.55244,-0.68627 -0.12957,-0.20969 -0.0796,-0.25883 0.13079,-0.12881 0.22612,0.13975 0.34188,-0.0677 0.34489,-0.61772 0.003,-0.56583 0.0835,-0.70359 0.25379,-0.43489 0.19614,0.30937 0.29942,0.27796 0.48452,-0.14744 0.12938,-0.29742 0.21417,-0.64014 0.18843,-0.76183 -0.0667,-0.31513 -0.0593,-0.31247 1.82729,0.66632 0.94074,0.48813 1.82444,0.81701 1.96379,0.7309 0.13934,-0.0862 0.361,0.0261 0.49258,0.24895 0.35641,0.60412 2.74519,2.02642 2.74519,1.63446 0,-0.18602 0.26534,0 0.58965,0.41137 0.32429,0.41233 0.58963,0.86803 0.58963,1.01286 0,0.63138 0.78244,1.83657 1.27617,1.96567 0.39028,0.10204 0.4918,0.0174 0.36737,-0.30715 -0.0946,-0.24644 -0.2541,-0.77533 -0.35448,-1.17532 -0.13005,-0.51814 -0.32042,-0.67474 -0.66209,-0.54482 -0.37357,0.14217 -0.40146,0.10384 -0.12614,-0.17363 0.27477,-0.27689 0.25668,-0.54323 -0.0813,-1.19672 -0.41625,-0.80496 -0.70802,-0.96925 -1.52978,-0.86155 -0.20525,0.0266 -0.33792,-0.11676 -0.29481,-0.31924 0.0431,-0.20239 -0.33265,-0.50745 -0.835,-0.67775 -0.50234,-0.1702 -1.11571,-0.47748 -1.36302,-0.68278 -0.5083,-0.42182 -1.50801,-0.17228 -1.21421,0.30303 0.11961,0.19358 0.0471,0.2204 -0.19376,0.0719 -0.30343,-0.18753 -0.27752,-0.31653 0.1222,-0.60881 0.46672,-0.34127 0.4526,-0.38803 -0.17645,-0.58442 -0.37603,-0.11739 -0.75002,-0.30099 -0.8311,-0.40797 -0.34864,-0.46016 -2.25135,-1.36135 -2.68442,-1.27151 -0.26032,0.0543 -0.65832,0.45517 -0.88446,0.89142 -0.46513,0.89732 -0.99039,1.59171 -1.97237,2.60739 -0.3722,0.38503 -0.57121,0.70408 -0.44223,0.70902 0.12899,0.008 9.7e-4,0.14493 -0.28424,0.31106 -0.32888,0.19145 -0.47418,0.54787 -0.39696,0.97375 0.0789,0.4348 -0.0224,0.67165 -0.28731,0.67165 -0.32263,0 -0.33584,-0.0987 -0.0625,-0.46684 0.19064,-0.2567 0.0584,-0.2003 -0.29381,0.12538 l -0.64043,0.59216 1.77993,5.30424 c 2.49641,7.43937 2.64853,7.83418 2.94752,7.64931 0.14648,-0.0905 0.18876,0.0378 0.094,0.28463 -0.13119,0.3419 0.85727,0.95323 4.13633,2.55836 2.36981,1.15998 4.39034,2.2411 4.49009,2.40258 0.21943,0.35502 1.40248,-0.87297 3.8614,-4.00824 z m -4.9935,2.55473 c 0.21282,-0.0852 0.4671,-0.0744 0.56506,0.0232 0.098,0.0979 -0.0761,0.16764 -0.38695,0.15476 -0.34344,-0.014 -0.4133,-0.084 -0.17811,-0.17809 z m -1.76892,-1.17925 c 0.21282,-0.0851 0.46711,-0.0744 0.56508,0.0232 0.098,0.098 -0.0761,0.16763 -0.38695,0.15481 -0.34345,-0.014 -0.41331,-0.084 -0.17813,-0.17809 z m -8.78929,-16.01364 c 0,-0.16212 0.1405,-0.29485 0.31222,-0.29485 0.17172,0 0.23022,0.13273 0.13001,0.29485 -0.10021,0.16221 -0.24071,0.29485 -0.31222,0.29485 -0.0715,0 -0.13001,-0.13264 -0.13001,-0.29485 z m 1.4741,-2.91207 c 0,-0.14227 0.22072,-0.44074 0.49049,-0.66332 0.44476,-0.36688 0.45754,-0.34282 0.13704,0.25874 -0.36555,0.68602 -0.62753,0.85491 -0.62753,0.40458 z m 1.17927,-1.18771 c 0,-0.14701 0.26534,-0.19789 0.58964,-0.11308 0.3243,0.0848 0.58964,0.2051 0.58964,0.26725 0,0.0619 -0.26534,0.11299 -0.58964,0.11299 -0.3243,0 -0.58964,-0.12025 -0.58964,-0.26716 z m 2.06374,-0.35686 c 0,-0.18879 -0.30278,-0.27127 -0.71013,-0.19338 -0.55558,0.10615 -0.6719,0.0334 -0.53444,-0.33421 0.15762,-0.42162 0.11698,-0.42443 -0.39545,-0.0276 -0.52657,0.40778 -0.54006,0.4026 -0.17294,-0.066 0.35917,-0.45841 0.48007,-0.46582 1.23428,-0.076 0.90771,0.4694 1.3911,1.02613 0.89089,1.02613 -0.17171,0 -0.31221,-0.14808 -0.31221,-0.32917 z m -37.63422,22.36692 c -0.12486,-0.20273 -0.81429,-1.20921 -1.53207,-2.2366 -0.94784,-1.3567 -1.37342,-1.76027 -1.55479,-1.47414 -0.38896,0.61371 -0.3511,0.68763 1.24492,2.43396 1.3528,1.48018 2.42511,2.22347 1.84194,1.27678 z m 53.82926,-2.39741 c -0.27245,-0.25302 -0.31415,-0.15829 -0.17929,0.40735 l 0.17574,0.73709 -0.58833,-0.73709 c -0.52434,-0.65688 -0.51505,-0.5805 0.0855,0.70272 l 0.67381,1.43977 0.0938,-1.11007 c 0.0516,-0.61055 -0.0659,-1.25848 -0.26122,-1.43977 z m -7.35067,-3.92362 c 1.3e-4,-0.3221 -1.442,-4.54682 -1.62114,-4.74905 -0.0429,-0.0485 -0.42145,0 -0.84122,0.10354 l -0.76324,0.19153 0.14407,3.28688 c 0.0932,2.1273 0.0481,3.07893 -0.12801,2.69729 -0.14964,-0.32428 -0.20396,-0.88812 -0.12071,-1.25302 0.0832,-0.36474 0.0226,-0.66327 -0.13486,-0.66327 -0.16741,0 -0.2387,-0.79295 -0.17176,-1.91004 0.0932,-1.55449 0.037,-1.88022 -0.30159,-1.7503 -0.33117,0.12702 -0.38432,0.6822 -0.26049,2.72076 0.0856,1.40855 0.2749,2.60715 0.42075,2.66345 0.15613,0.0602 0.15673,0.24213 0.002,0.4422 -0.15549,0.2004 -0.15168,0.75399 0.009,1.34891 l 0.27304,1.00904 1.74712,-1.89349 c 0.96091,-1.04142 1.7472,-2.05148 1.7473,-2.24443 z m -3.34943,2.70943 c 0.0933,-0.24319 0.22184,-0.44215 0.28557,-0.44215 0.0638,0 0.11587,0.19896 0.11587,0.44215 0,0.2433 -0.12851,0.44225 -0.28558,0.44225 -0.15705,0 -0.20919,-0.19895 -0.11586,-0.44225 z m 9.24601,0.1474 c -0.17356,-0.32423 -0.3819,-0.58955 -0.46298,-0.58955 -0.0811,0 -0.005,0.26532 0.16816,0.58955 0.17356,0.32438 0.3819,0.58969 0.46297,0.58969 0.0811,0 0.005,-0.26531 -0.16815,-0.58969 z m 1.15855,-0.66327 c 0.0114,-0.1216 -0.17828,-0.22112 -0.42151,-0.22112 -0.48485,0 -0.54665,0.26924 -0.24326,1.05991 0.18463,0.48112 0.21499,0.47754 0.4215,-0.0493 0.12241,-0.31237 0.23188,-0.66753 0.24327,-0.78913 z m -22.07606,0.21352 c 0.4784,-0.24736 0.86982,-0.61206 0.86982,-0.81048 0,-0.33217 -2.93047,-9.38237 -3.10658,-9.59415 -0.18357,-0.22064 -3.08504,1.46407 -3.08913,1.79377 -0.003,0.23952 -0.0981,0.21551 -0.2788,-0.0702 -0.50777,-0.80288 -0.70259,-0.0208 -0.76492,3.06986 -0.0696,3.45195 -0.10366,3.38462 2.52232,4.98582 l 1.32669,0.80898 -1.32669,-1.22842 c -0.72967,-0.67557 -1.52568,-1.31222 -1.76892,-1.4147 -0.34481,-0.14522 -0.40372,-0.51093 -0.26742,-1.66036 l 0.1748,-1.47409 0.0463,1.357 c 0.045,1.31831 0.10715,1.40414 2.18375,3.01406 1.17559,0.91135 2.24353,1.66055 2.37319,1.66491 0.12967,0.008 0.62717,-0.19465 1.10558,-0.44201 z m -5.6306,-7.00207 c 0.1435,-1.21461 0.14965,-1.22076 0.24965,-0.24962 0.0564,0.54757 -0.01,1.10797 -0.14713,1.2453 -0.13731,0.13729 -0.18344,-0.31072 -0.10252,-0.99568 z m 28.60281,6.41998 c 0,-0.16212 -0.1286,-0.0957 -0.2858,0.14745 -0.15717,0.24319 -0.28578,0.57488 -0.28578,0.73699 0,0.16221 0.12861,0.0959 0.28578,-0.14735 0.1572,-0.24324 0.2858,-0.57493 0.2858,-0.73709 z m -51.58428,0.50033 c 0,-0.13016 -0.40949,-0.79358 -0.90997,-1.47409 -0.94506,-1.28506 -0.92058,-1.7381 0.031,-0.57406 0.90197,1.10339 1.19103,0.32622 1.38202,-3.71596 l 0.17616,-3.72814 h -0.76877 c -0.76462,0 -0.76661,-0.008 -0.36859,-1.13423 0.2201,-0.62387 0.67137,-1.66583 1.00283,-2.31559 0.45292,-0.88774 0.51873,-1.26527 0.26483,-1.51916 -0.55468,-0.55465 -0.69283,-0.41983 -1.54205,1.50488 -1.37612,3.11876 -2.80871,6.23862 -3.11918,6.79279 -0.34283,0.61196 -0.13152,1.09361 0.47983,1.09361 0.24311,0 0.8234,-0.88885 1.35173,-2.07045 0.50918,-1.13873 0.97601,-2.02017 1.03742,-1.95874 0.0614,0.061 -0.2971,1.02265 -0.79669,2.13615 -0.49958,1.11349 -0.84472,2.26785 -0.76695,2.56527 0.11586,0.44302 0.0644,0.47676 -0.28475,0.18704 -0.23439,-0.19455 -0.50117,-0.27873 -0.59286,-0.18704 -0.13674,0.13679 0.89091,1.75548 2.6854,4.22999 0.32269,0.44496 0.73856,0.5395 0.73856,0.16773 z m 16.09342,-1.11529 1.89053,-1.05726 v -3.4884 -3.48844 l -1.07325,-0.66327 c -1.03856,-0.64183 -1.0862,-0.6456 -1.47409,-0.11511 -0.22047,0.30153 -0.40133,0.68864 -0.40192,0.86038 -4.9e-4,0.17166 -0.40686,1.3735 -0.90284,2.67075 -1.03871,2.7167 -1.01398,2.64283 -1.30652,3.90635 -0.122,0.527 -0.34531,0.95811 -0.49624,0.95811 -0.33402,0 1.27826,1.45163 1.6269,1.46475 0.1358,0.008 1.09765,-0.4664 2.13743,-1.04786 z m -13.62168,0.30244 c 0.62317,-0.15645 0.65102,-0.31774 0.72506,-4.19993 0.0424,-2.22047 0.12974,-4.36891 0.19421,-4.77432 0.0644,-0.40541 -0.0625,-0.97729 -0.28212,-1.27088 -0.53001,-0.70858 -2.08288,-0.89228 -2.66041,-0.31479 -0.68553,0.68554 -0.54641,0.95096 0.6125,1.1684 l 1.061,0.199 -0.10673,4.20994 c -0.0935,3.6892 -0.17918,4.29235 -0.69247,4.87628 -0.54195,0.61642 -0.54512,0.65141 -0.0425,0.46756 0.29884,-0.10925 0.83496,-0.27185 1.19139,-0.36126 z m 46.29368,-0.27708 c -0.26562,-0.40536 -0.53117,-0.73709 -0.59011,-0.73709 -0.0589,0 0.0439,0.33173 0.22863,0.73709 0.18471,0.40536 0.45025,0.73705 0.59012,0.73705 0.13985,0 0.0369,-0.33169 -0.22864,-0.73705 z m -12.94094,-3.0219 c -0.11777,-1.90525 -0.28101,-3.5747 -0.36278,-3.70985 -0.25062,-0.41427 -3.6969,-2.87247 -3.83435,-2.73504 -0.0709,0.0711 0.48098,2.09733 1.22649,4.50304 1.28113,4.13415 1.96037,5.40595 2.88725,5.40595 0.1954,0 0.22402,-1.18888 0.0834,-3.4641 z m 15.21518,2.3807 c -0.34755,-0.59773 -0.43148,-0.40642 -0.14698,0.33493 0.10111,0.26353 0.24594,0.41703 0.32184,0.34108 0.0759,-0.076 -0.002,-0.3801 -0.17486,-0.67601 z m -43.5023,-1.56998 c 1.92275,-5.3552 2.75215,-7.79269 2.67718,-7.86767 -0.049,-0.0493 -1.04057,0.33376 -2.20359,0.85061 l -2.11458,0.93948 v 3.64895 c 0,3.56885 0.0139,3.64684 0.63525,3.55477 0.41812,-0.0619 0.7619,-0.44694 1.00574,-1.12614 z m 40.30103,0 c -0.25547,-0.65035 -0.50582,-1.14105 -0.55634,-1.09051 -0.16723,0.16714 0.57316,2.27295 0.79918,2.27295 0.1219,0 0.0126,-0.53209 -0.24284,-1.18244 z m -54.1445,-5.09865 c 1.9017,-3.83112 2.23554,-4.70457 1.88161,-4.92337 -0.47896,-0.29601 -0.70432,0.0841 -2.68067,4.52198 -0.63789,1.43241 -1.42288,3.14877 -1.74442,3.81436 -0.32155,0.66545 -0.58462,1.47995 -0.58462,1.80989 0,0.59492 0.003,0.59507 0.4081,0.0174 0.22447,-0.32051 1.44846,-2.67851 2.72,-5.24004 z m 56.47937,4.15355 c -0.21154,-0.21159 -0.34887,-0.22896 -0.34887,-0.044 0,0.39355 0.34866,0.74218 0.54542,0.54545 0.0838,-0.0838 -0.005,-0.30927 -0.19655,-0.50116 z m -3.56489,-2.03058 c -0.31624,-0.71277 -0.58434,-1.19917 -0.5958,-1.08081 -0.0338,0.34896 0.92666,2.62083 1.05411,2.49338 0.0642,-0.0643 -0.14208,-0.69982 -0.45831,-1.41257 z m 2.75274,-0.39045 c -0.10844,-0.43206 -0.25402,-0.72875 -0.32352,-0.65919 -0.0695,0.0694 -0.0376,0.47985 0.0708,0.91188 0.10845,0.43208 0.25402,0.72867 0.32351,0.6592 0.0695,-0.0694 0.0376,-0.47985 -0.0708,-0.91189 z m -4.40787,-1.56885 c -0.20023,-1.86082 -1.06259,-2.81477 -1.24384,-1.37602 -0.0671,0.53277 -0.0541,0.53136 0.2252,-0.0242 0.26096,-0.51917 0.28338,-0.49375 0.18749,0.21216 -0.0599,0.44099 -0.0105,0.74102 0.10982,0.66667 0.12029,-0.0744 0.2877,0.12866 0.37203,0.45115 0.18934,0.72397 0.42474,0.77146 0.3493,0.0702 z m 3.33963,-1.33647 c -0.18321,-0.59696 -0.71915,-1.51882 -1.19097,-2.04873 l -0.85788,-0.96344 0.72184,1.03189 c 0.397,0.56752 0.88413,1.53827 1.08252,2.15721 0.19838,0.61888 0.40949,1.07652 0.46913,1.01688 0.0597,-0.0593 -0.0414,-0.59686 -0.22464,-1.19381 z m -3.43761,-1.56989 c -0.47089,-1.27964 -1.03201,-2.75281 -1.24692,-3.27362 -0.39988,-0.96901 -0.14834,-1.74328 0.31217,-0.96083 0.62006,1.05348 1.91207,2.64477 2.14735,2.64477 0.14181,0 -0.36529,-0.7931 -1.12689,-1.7625 -0.7616,-0.96945 -1.52058,-1.67861 -1.68663,-1.57599 -0.16603,0.10263 -0.21651,0.0485 -0.11217,-0.12034 0.10435,-0.16879 0.005,-0.4602 -0.22072,-0.64754 -0.34571,-0.28691 -0.36839,-0.15354 -0.14383,0.84587 0.28038,1.24788 1.09783,3.49711 1.45287,3.99759 0.11503,0.16211 0.43922,0.99994 0.72043,1.86173 0.28119,0.86174 0.56735,1.51078 0.63589,1.44224 0.0685,-0.0685 -0.26065,-1.17164 -0.73155,-2.45138 z m -31.5787,0.0319 c 0.40007,-0.5454 0.39381,-0.55925 -0.0834,-0.18501 -0.28376,0.22253 -0.51593,0.54317 -0.51593,0.7125 0,0.16933 0.0375,0.25254 0.0834,0.18501 0.0459,-0.0677 0.27805,-0.38817 0.51593,-0.7125 z m 24.29595,0.31891 c -0.31449,-0.22989 -0.63452,-0.35541 -0.71115,-0.27878 -0.16225,0.16226 0.59799,0.68578 1.00551,0.69246 0.1526,0 0.0201,-0.1837 -0.29436,-0.41368 z m 2.68239,-0.19111 c 0.30369,-0.49134 -0.0577,-0.65945 -0.94117,-0.43775 -0.63309,0.15887 -0.71625,0.26183 -0.38227,0.47308 0.57154,0.3616 1.08662,0.34781 1.32344,-0.0353 z m -1.29931,-0.61671 c 1.80505,-0.54075 1.61686,-0.78361 -2.35171,-3.03449 -2.45485,-1.39238 -3.10052,-1.64864 -3.3122,-1.31425 -0.34277,0.54143 -0.34621,1.44727 -0.006,1.44727 0.14655,0 1.17473,0.72316 2.28484,1.60692 1.11012,0.88382 2.06933,1.6135 2.13159,1.62149 0.0623,0.008 0.62611,-0.13912 1.25299,-0.32694 z m -2.39805,-0.12092 c 0,-0.0382 -0.82092,-0.67934 -1.82426,-1.42496 -1.80968,-1.34479 -2.59802,-1.65711 -2.59802,-1.02923 0,0.1795 0.19741,0.25061 0.43869,0.158 0.24128,-0.0926 0.40711,-0.051 0.36852,0.0928 -0.0917,0.34122 2.60781,2.27276 3.17649,2.27276 0.24122,0 0.43858,-0.031 0.43858,-0.0694 z m -32.79861,-1.67498 c -0.11,-0.5501 -0.56924,-0.80118 -1.4741,-0.80631 -1.11088,-0.008 -1.02126,0.50754 0.14742,0.84499 1.32422,0.38232 1.41038,0.37985 1.32668,-0.0382 z m 2.35855,-1.88685 c 1.33774,-0.59454 2.43226,-1.25893 2.43226,-1.47651 0,-0.61986 -0.64683,-0.47812 -3.1387,0.68757 -2.75998,1.29116 -2.56724,1.16283 -2.32757,1.55057 0.27793,0.4497 0.34743,0.43223 3.03401,-0.76163 z m 19.88524,-0.82244 0.79569,-0.70064 -0.6044,-2.16457 c -0.33242,-1.19047 -0.69049,-2.24778 -0.7957,-2.34958 -0.10521,-0.1018 -2.01949,-0.27509 -4.25394,-0.38507 l -4.06264,-0.20007 -0.7447,1.68384 c -1.19206,2.69549 -1.20597,3.14093 -0.12644,4.04934 0.91371,0.76885 1.02229,0.78579 4.96528,0.77669 3.81757,-0.009 4.0733,-0.047 4.82685,-0.70994 z m 16.0938,-0.8249 c 0.015,-0.52498 -0.18446,-1.18839 -0.44306,-1.47409 -0.57502,-0.63539 -1.01097,-0.67862 -0.78025,-0.0769 0.0933,0.2432 0.38767,0.44428 0.65409,0.4467 0.42046,0 0.42602,0.0426 0.0422,0.29034 -0.32135,0.20767 -0.33674,0.28706 -0.0563,0.2903 0.21226,0 0.29679,0.14876 0.18784,0.32501 -0.10894,0.17624 -0.44845,0.25505 -0.75444,0.17499 -0.30601,-0.0802 -0.55637,-0.0958 -0.55637,-0.0349 0,0.0803 1.24643,0.83652 1.65034,1.00193 0.0159,0.008 0.041,-0.41775 0.056,-0.94272 z m -11.54269,-0.94684 c 0.0445,-0.56554 -0.0319,-1.09807 -0.16977,-1.18331 -0.32999,-0.20389 -0.5227,0.38236 -0.45671,1.38947 0.0292,0.44593 -0.0668,0.81072 -0.21357,0.81072 -0.14668,0 -0.17755,0.14426 -0.0686,0.32055 0.32693,0.5289 0.81867,-0.19479 0.90865,-1.33743 z m 7.77262,-0.29935 c 0,-0.0752 -0.2985,-0.28173 -0.66334,-0.45856 -0.63699,-0.30864 -0.64061,-0.30322 -0.0911,0.13704 0.60151,0.48194 0.7544,0.54705 0.7544,0.32152 z m -37.21688,-1.02817 c 0.72345,-0.39679 5.01225,-2.3609 5.85382,-2.68087 0.72892,-0.27713 0.87208,-0.73569 0.44168,-1.41479 -0.29951,-0.4726 -1.44286,0.03 -2.94745,1.29629 -0.50589,0.42559 -0.92183,0.66259 -0.92431,0.52667 -0.002,-0.13608 -0.10199,-0.10834 -0.22112,0.0618 -0.11913,0.17001 -0.84677,0.6731 -1.61699,1.11801 -0.77021,0.445 -1.40039,0.93609 -1.40039,1.09143 0,0.35492 0.16989,0.35526 0.81476,0 z m 29.65333,-0.46911 c -0.096,-0.25021 -0.23781,-0.39171 -0.31509,-0.3144 -0.0773,0.0769 -0.0531,0.28197 0.0538,0.45498 0.29071,0.47032 0.46062,0.37897 0.26127,-0.14058 z m 4.61536,-0.25055 c 0,-0.0635 -0.20589,-0.19489 -0.45754,-0.29141 -0.26236,-0.10069 -0.38071,-0.051 -0.27742,0.11583 0.17314,0.28014 0.73496,0.41437 0.73496,0.17558 z m -20.71103,-2.07845 c 1.32397,-1.23186 1.47362,-1.59453 0.89612,-2.17202 -0.27927,-0.27931 -0.72291,0.008 -2.04039,1.30907 -1.43611,1.42108 -1.63458,1.74434 -1.35049,2.19922 0.37846,0.60606 0.44584,0.56994 2.49476,-1.33627 z m 18.35249,0.33318 c 0,-0.051 -0.43118,-0.48189 -0.95817,-0.95817 l -0.95817,-0.86595 0.86592,0.95822 c 0.80715,0.89315 1.05042,1.0937 1.05042,0.8659 z m 3.83264,-0.0344 c 0,-0.0694 -0.59701,-0.52942 -1.32669,-1.02192 -0.72967,-0.49239 -1.32573,-0.80036 -1.32456,-0.68418 9.7e-4,0.11608 0.565,0.57386 1.25298,1.01722 1.32143,0.85153 1.39827,0.88938 1.39827,0.68888 z m -7.07566,-2.23199 c -0.34367,-0.64217 -1.22503,-0.81842 -1.10556,-0.22113 0.0908,0.45387 0.53847,0.80017 1.04223,0.80617 0.28766,0 0.30291,-0.13743 0.0633,-0.58504 z m -15.18317,9.43418 c 0.10021,-0.16221 0.24071,-0.29485 0.31222,-0.29485 0.0715,0 0.13001,0.13264 0.13001,0.29485 0,0.16211 -0.1405,0.29475 -0.31222,0.29475 -0.17172,0 -0.23023,-0.13264 -0.13001,-0.29475 z m 12.95455,-0.32317 c -0.10984,-0.17765 -9.7e-4,-0.52173 0.2418,-0.76459 0.39212,-0.39209 0.42515,-0.35593 0.29533,0.32307 -0.16212,0.84819 -0.24417,0.91562 -0.53713,0.44152 z m -2.0636,-10.71542 c -0.55621,-0.41315 -0.55365,-0.42385 0.0911,-0.37951 0.36484,0.0252 0.66334,0.21638 0.66334,0.42516 0,0.47768 -0.0542,0.47444 -0.7544,-0.046 z m -1.60415,-0.46514 c 0,-0.15839 -0.54433,-0.23884 -1.20961,-0.17891 -0.66529,0.0602 -1.69348,0 -2.28485,-0.13573 -0.59138,-0.13458 -2.16976,-0.26711 -3.5075,-0.29461 -1.33773,-0.0276 -2.43225,-0.17209 -2.43225,-0.32123 0,-0.15635 1.15545,-0.20834 2.72707,-0.12271 1.4999,0.0819 3.81039,0.17291 5.13442,0.20254 2.73909,0.061 3.4213,0.29629 2.31813,0.799 -0.44977,0.20491 -0.74541,0.22538 -0.74541,0.0518 z"
       id="path2909"
       inkscape:connector-curvature="0" />
    <flowRoot
       xml:space="preserve"
       id="flowRoot880"
       style="font-style:normal;font-weight:normal;font-size:16px;line-height:25px;font-family:Sans;text-align:center;letter-spacing:0px;word-spacing:0px;text-anchor:middle;fill:#000000;fill-opacity:1;stroke:none;stroke-width:1px;stroke-linecap:butt;stroke-linejoin:miter;stroke-opacity:1"
       transform="matrix(0.26458333,0,0,0.26458333,0,-194.53326)"><flowRegion
         id="flowRegion882"
         style="text-align:center;text-anchor:middle"><rect
           id="rect884"
           width="1729.2683"
           height="163.41463"
           x="92.68293"
           y="733.66626"
           style="text-align:center;text-anchor:middle" /></flowRegion><flowPara
         id="flowPara886"
         style="font-size:85.33333588px;text-align:center;text-anchor:middle"><flowSpan
   style="font-style:normal;font-variant:normal;font-weight:bold;font-stretch:normal;font-size:77.33333588px;font-family:Tangerine;-inkscape-font-specification:'Tangerine Bold';text-align:center;text-anchor:middle"
   id="flowSpan888">Konstruktion     Verleih       Workshops      Turniere</flowSpan> </flowPara></flowRoot>    <ellipse
       style="opacity:1;fill:#000000;fill-opacity:1;stroke:#000000;stroke-width:0.41714457;stroke-linejoin:round;stroke-miterlimit:4;stroke-dasharray:none;stroke-dashoffset:3.60566902;stroke-opacity:1"
       id="path907"
       cx="-108.04034"
       cy="4.5386419"
       rx="1.6407163"
       ry="1.4914277"
       transform="scale(-1,1)" />
    <ellipse
       transform="scale(-1,1)"
       ry="1.4914277"
       rx="1.6407163"
       cy="4.5386419"
       cx="-199.58632"
       id="ellipse909"
       style="opacity:1;fill:#000000;fill-opacity:1;stroke:#000000;stroke-width:0.41714457;stroke-linejoin:round;stroke-miterlimit:4;stroke-dasharray:none;stroke-dashoffset:3.60566902;stroke-opacity:1" />
    <ellipse
       transform="scale(-1,1)"
       ry="1.4914277"
       rx="1.6407163"
       cy="4.5386419"
       cx="-337.16949"
       id="ellipse913"
       style="opacity:1;fill:#000000;fill-opacity:1;stroke:#000000;stroke-width:0.41714457;stroke-linejoin:round;stroke-miterlimit:4;stroke-dasharray:none;stroke-dashoffset:3.60566902;stroke-opacity:1" />
    <ellipse
       style="opacity:1;fill:#000000;fill-opacity:1;stroke:#000000;stroke-width:0.41714457;stroke-linejoin:round;stroke-miterlimit:4;stroke-dasharray:none;stroke-dashoffset:3.60566902;stroke-opacity:1"
       id="ellipse915"
       cx="-401.72781"
       cy="4.5386419"
       rx="1.6407163"
       ry="1.4914277"
       transform="scale(-1,1)" />
    <flowRoot
       xml:space="preserve"
       id="flowRoot917"
       style="fill:black;stroke:none;stroke-opacity:1;stroke-width:1px;stroke-linejoin:miter;stroke-linecap:butt;fill-opacity:1;font-family:Tangerine;font-style:normal;font-weight:normal;font-size:16px;line-height:25px;letter-spacing:0px;word-spacing:0px;-inkscape-font-specification:Tangerine;font-stretch:normal;font-variant:normal;"><flowRegion
         id="flowRegion919"
         style="-inkscape-font-specification:Tangerine;font-family:Tangerine;font-weight:normal;font-style:normal;font-stretch:normal;font-variant:normal;"><rect
           id="rect921"
           width="692.68292"
           height="668.29266"
           x="521.95123"
           y="858.05646"
           style="-inkscape-font-specification:Tangerine;font-family:Tangerine;font-weight:normal;font-style:normal;font-stretch:normal;font-variant:normal;" /></flowRegion><flowPara
         id="flowPara923" /></flowRoot>    <text
       xml:space="preserve"
       style="font-style:normal;font-variant:normal;font-weight:bold;font-stretch:normal;font-size:16.93333244px;line-height:13.22916698px;font-family:Tangerine;-inkscape-font-specification:'Tangerine Bold';text-align:center;letter-spacing:0px;word-spacing:0px;text-anchor:middle;fill:#000000;fill-opacity:1;stroke:none;stroke-width:0.26458332px;stroke-linecap:butt;stroke-linejoin:miter;stroke-opacity:1"
       x="265.18112"
       y="44.677868"
       id="text927"><tspan
         sodipodi:role="line"
         x="265.18112"
         y="44.677868"
         style="line-height:13.22916698px;text-align:center;text-anchor:middle;stroke-width:0.26458332px"
         id="tspan931">Andr Mirtschink</tspan><tspan
         sodipodi:role="line"
         x="265.18112"
         y="57.907036"
         style="font-size:12.69999981px;line-height:13.22916698px;text-align:center;text-anchor:middle;stroke-width:0.26458332px"
         id="tspan935">Inhaber</tspan><tspan
         sodipodi:role="line"
         x="265.18112"
         y="72.194534"
         style="line-height:13.22916698px;text-align:center;text-anchor:middle;stroke-width:0.26458332px"
         id="tspan937" /><tspan
         sodipodi:role="line"
         x="265.18112"
         y="85.423698"
         style="line-height:13.22916698px;text-align:center;text-anchor:middle;stroke-width:0.26458332px"
         id="tspan939">Tuchmacher Str. 18     02625 Bautzen</tspan><tspan
         sodipodi:role="line"
         x="265.18112"
         y="98.652863"
         style="line-height:13.22916698px;text-align:center;text-anchor:middle;stroke-width:0.26458332px"
         id="tspan943" /><tspan
         sodipodi:role="line"
         x="265.18112"
         y="114.52786"
         style="line-height:18.52083397px;text-align:center;text-anchor:middle;stroke-width:0.26458332px"
         id="tspan945">Tel.: 0151 663 777 33     E-Mail: info@kicker-rabatz.de</tspan><tspan
         sodipodi:role="line"
         x="265.18112"
         y="133.04871"
         style="line-height:18.52083397px;text-align:center;text-anchor:middle;stroke-width:0.26458332px"
         id="tspan947">Web: kicker-rabatz.de</tspan><tspan
         sodipodi:role="line"
         x="265.18112"
         y="148.92371"
         style="line-height:18.52083397px;text-align:center;text-anchor:middle;stroke-width:0.26458332px"
         id="tspan929" /></text>
    <ellipse
       transform="scale(-1,1)"
       ry="1.4914277"
       rx="1.6407163"
       cy="81.732445"
       cx="-276.31531"
       id="ellipse951"
       style="opacity:1;fill:#000000;fill-opacity:1;stroke:#000000;stroke-width:0.41714457;stroke-linejoin:round;stroke-miterlimit:4;stroke-dasharray:none;stroke-dashoffset:3.60566902;stroke-opacity:1" />
    <ellipse
       transform="scale(-1,1)"
       ry="1.4914277"
       rx="1.6407163"
       cy="110.30743"
       cx="-240.33189"
       id="ellipse955"
       style="opacity:1;fill:#000000;fill-opacity:1;stroke:#000000;stroke-width:0.41714457;stroke-linejoin:round;stroke-miterlimit:4;stroke-dasharray:none;stroke-dashoffset:3.60566902;stroke-opacity:1" />
    <ellipse
       style="opacity:1;fill:#000000;fill-opacity:1;stroke:#000000;stroke-width:0.41714457;stroke-linejoin:round;stroke-miterlimit:4;stroke-dasharray:none;stroke-dashoffset:3.60566902;stroke-opacity:1"
       id="ellipse965"
       cx="-258.85306"
       cy="4.5386419"
       rx="1.6407163"
       ry="1.4914277"
       transform="scale(-1,1)" />
    <path
       inkscape:connector-curvature="0"
       id="path979"
       d="M 336.55889,66.704742 196.7498,66.667842"
       style="opacity:1;fill:none;fill-rule:evenodd;stroke:#000000;stroke-width:1.55334294;stroke-linecap:butt;stroke-linejoin:round;stroke-miterlimit:4;stroke-dasharray:none;stroke-dashoffset:0.95399994;stroke-opacity:1;marker-start:url(#marker983);marker-end:url(#marker1023)" />
    <path
       inkscape:connector-curvature="0"
       id="path1355"
       d="m 343.8317,95.185235 -153.39623,-0.0358"
       style="opacity:1;fill:none;fill-rule:evenodd;stroke:#000000;stroke-width:1.60155678;stroke-linecap:butt;stroke-linejoin:round;stroke-miterlimit:4;stroke-dasharray:none;stroke-dashoffset:0.95399994;stroke-opacity:1;marker-start:url(#marker1359);marker-end:url(#marker1411)" />
    <path
       inkscape:connector-curvature="0"
       id="path1695"
       d="m 316.23041,21.200352 -94.31128,-0.0448"
       style="opacity:1;fill:none;fill-rule:evenodd;stroke:#000000;stroke-width:1.40568638;stroke-linecap:butt;stroke-linejoin:round;stroke-miterlimit:4;stroke-dasharray:none;stroke-dashoffset:0.95399994;stroke-opacity:1;marker-start:url(#marker1699);marker-end:url(#marker1763)" />
  </g>
</svg>
